<svg xmlns="http://www.w3.org/2000/svg" viewBox="0 0 100.63 21.1"><defs><style>.cls-1{fill:#004E7C;}</style></defs><title>Asset 8</title><g id="Layer_2" data-name="Layer 2"><g id="Layer_1-2" data-name="Layer 1"><path class="cls-1" d="M10.55.06c.09.12-.08.68-.15.84-.33.81-.48,1.84-.8,2.7-.44,1.19-.89,2.29-1.33,3.47-.06.18,0,.32-.07.52-.31,1.1-.55,2.49-.85,3.47v.19c-.15.5-.21,1.12-.34,1.6v.31c-.1.29-.1.56-.21.91,0,.14-.16.3-.21.43s-.08.42-.22.59a1.31,1.31,0,0,1-1.15.12,4.49,4.49,0,0,1-.83-.71,4.82,4.82,0,0,1-.31-.38,3,3,0,0,1-.32-.83l-.37-1.08c-.06-.14,0-.22-.08-.35s-.11-.1-.14-.16,0-.19,0-.29S3,11.25,3,11.19,2.86,10.08,2.85,10s-.18-1.17-.24-1.81c0,0,0-.76-.08-.77s.1-1,0-2.66a15.27,15.27,0,0,0-.32-2.11c-.08-.24,0-.66-.28-.72a7.19,7.19,0,0,0-.63,1,1.8,1.8,0,0,0-.13.75A7.16,7.16,0,0,0,1.07,5,6.41,6.41,0,0,1,1,5.6C1,5.78,1,6,1,6.19c-.12,1-.27,2-.38,3,0,.05.06.2,0,.29C.51,10.12.54,11,.4,11.67c-.1.06-.29.17-.37.14l0,0c.27-.21.14-1,.24-1.39s0-.67.11-1A14.78,14.78,0,0,0,.67,6.59v-1c0-.08,0-1.45,0-1.74V3.78c0-.16.07-.32.11-.47l.1-.38C1.25,2,1.7,1,3,1.09a3,3,0,0,0,.51.41c.1.1.11.24.18.36s.19.11.26.19A.92.92,0,0,0,4,2.26a2,2,0,0,1,.12.27l.08.38c.27.1.44.69.59,1,0,0,.3.64.32.68a5.72,5.72,0,0,0,.11.57,1.26,1.26,0,0,1,.13.16,1.33,1.33,0,0,0,0,.21,5.15,5.15,0,0,1,.3,1.34c.1.6.31,1.41.37,1.62v.32c.1.35.18.91.29,1.39,0,.21,0,.42,0,.63v.78a9.47,9.47,0,0,1,0,1.31,1,1,0,0,1,.11.73l.06,0a3.84,3.84,0,0,0,.18-.83c.14-.51.3-1.24.46-1.65a4.14,4.14,0,0,0,.08-.64,44.6,44.6,0,0,1,2-7,5.72,5.72,0,0,0,.11-.57c.1-.31.08-.66.21-1s.24-.52.32-.76a2,2,0,0,0,0-.27,5.25,5.25,0,0,1,.52-.8l.11,0Z"/><path class="cls-1" d="M11.57,8.52a.8.8,0,0,0-.15.44,1.91,1.91,0,0,0,0,.2A2.73,2.73,0,0,0,11.89,11c.06.08.17.13.22.21a2.22,2.22,0,0,0,1.39-.39,1.06,1.06,0,0,0,.24-.19c0-.05.53-.34.56-.4l.24-.18.28-.19.25-.27.21-.16a2.44,2.44,0,0,1,.37-.3c.11,0,.19-.2.26-.2s-.07,0,0,.12a.62.62,0,0,1-.16.17c-.08.16-.29.29-.41.4s0,.07,0,.11A1.26,1.26,0,0,1,15,10a.37.37,0,0,0-.07.12,1.78,1.78,0,0,1-.21.11c-.11.06-.17.19-.32.33s-.48.32-.61.45a2,2,0,0,1-.43.35c-.08.07-.19.13-.77.26a1.68,1.68,0,0,1-.54,0,2.33,2.33,0,0,1-.78-.21,2.16,2.16,0,0,1-.63-1.5c0-.13,0-.22,0-.34a.52.52,0,0,1,0-.33,2.7,2.7,0,0,0,0-.63.52.52,0,0,1,.3-.4c.07,0,.16-.06.19,0C11.2,8.31,11.47,8.23,11.57,8.52Zm-.35-3.7a2.19,2.19,0,0,1,.2.22L11.5,5c0,.08.08.06.12.09s.44.61.32.85c0,.08-.07.11-.12.21l-.14,0c-.14-.29-.19-.14-.42-.29a.4.4,0,0,1-.17-.17c-.08,0-.16,0-.16-.13l-.1-.13c-.05,0-.27-.14-.29-.25s.07-.16.13-.26.1-.13.16-.13S11,4.88,11.22,4.82Z"/><path class="cls-1" d="M21.36,8.23s-.05,0-.05,0,0,.1.05.13a4.79,4.79,0,0,1,0,.51l.05,0c0,.17.06.17.06.33l.05,0c0,.06,0,.11,0,.16a1.68,1.68,0,0,0,.55.77c.16.13.64.59,1,.46a1.57,1.57,0,0,0,.32-.24c.4-.27.59-.53,1-.81.13-.07.78-.64,1-.72s.08,0,.08.08a3.09,3.09,0,0,0-.69.64c-.14.17-.58.46-.61.72-.19,0-.27.19-.41.28a13.68,13.68,0,0,1-1.3.74v.06a3.65,3.65,0,0,1-.83.13,1.05,1.05,0,0,1-.26-.13c-.11,0-.17,0-.24-.12s0,0,0-.07h-.08c0-.08-.11-.08-.14-.17a2.82,2.82,0,0,1-.34-1.3v0a1,1,0,0,1-.08-.53c-.12-.48-.07-.56-.18-1s0-.39-.27-.42A3.8,3.8,0,0,0,18.9,9.27a3.33,3.33,0,0,0-.16.53c-.12.28-.23.65-.34.92s-.32,1.17-.59,1.16a.82.82,0,0,1-.27-.82c0-.11.14-.21.09-.38A5.19,5.19,0,0,0,17.07,9a.63.63,0,0,0-.4-.26c-.38-.08-.75.24-1,.44s-.18.24-.39.32a.06.06,0,0,1,0,0h0a1.3,1.3,0,0,1,.29-.33c.32-.28.71-.8,1.32-.48s.67.83.86,1.55a1.89,1.89,0,0,1,.14.62H18a4.83,4.83,0,0,1,.26-.76,8.48,8.48,0,0,1,.88-1.92,2.84,2.84,0,0,1,.53-.69c.1-.1.18-.1.27-.21L20,7.09h.06a.62.62,0,0,1,.84-.19A8.81,8.81,0,0,1,21.36,8.23Z"/><path class="cls-1" d="M30.16,7.43a5.21,5.21,0,0,1,.59,1.49c.12.43-.06,1.12.28,1.36s.92.06,1.39-.07a1,1,0,0,0,.21-.09,5.56,5.56,0,0,0,.73-.55c.19-.14.5-.54.71-.67,0,0,.14,0,.08.06s-.77.76-1,.9-.36.34-.56.48l-.07.06c-.29.21-.81.69-1.21.69,0,0-.1.08-.12.08l-.48,0c-.21,0-.45-.12-.67-.14-.14-.26-.37-.42-.45-.75l0-.16c-.1-.43.16-1.78-.37-1.89-.08.13-.22.18-.3.29s-.16.32-.28.48a.41.41,0,0,1-.12.11l-.12.22s0,.05,0,.08a1,1,0,0,0-.16.13c-.07.1-.07.23-.13.32a4.54,4.54,0,0,1-.39.48c-.08.1-.49.61-.67.47s-.37-.36-.54-.55c0-.08.09-.21.11-.29a4.15,4.15,0,0,0-.1-1.39.43.43,0,0,0-.44-.21s-.05,0-.13.07l-.21.14s0,0-.13.11-.13.13-.22.2l-.2.14s0,0,0-.05a1.27,1.27,0,0,1,.22-.25l.2-.15.09,0c.08,0,.15-.12.24-.12l.07-.1a.77.77,0,0,1,.49,0c.35.14.43.46.51.81,0,.15.29.88.4.85.36-.09.61-.75.8-1.07s.4-.42.55-.64,0-.21.08-.3a3.48,3.48,0,0,0,.24-.28,2.15,2.15,0,0,1,.48-.24c.08,0,.16,0,.22,0Z"/><path class="cls-1" d="M36.53,10.42l0,.16,0,.62,0,.1A8.83,8.83,0,0,1,37,12.56c-.16.13-.05.48-.35.66s-.83-.09-1-.3l-.21-.16a1.05,1.05,0,0,1-.16-.4s0-.21,0-.24,0-.32,0-.47,0-.4,0-.64a7.3,7.3,0,0,0,.08-1.18.53.53,0,0,1,0-.27,1.06,1.06,0,0,0-.15-.63c-.06-.13,0-.16-.16-.21s-.78.16-1,.31-.16.17-.25.14,0,0,0-.08a3.27,3.27,0,0,1,.89-.64,1.76,1.76,0,0,1,.51-.16C36.37,8.42,36.3,9.49,36.53,10.42ZM35.22,4.53c.06,0,.33,0,.46,0s.14.13.21.18V4.8c-.1,0-.1,0-.11.13a2.13,2.13,0,0,1,0,.72l0,.27c-.14,0-.14.15-.16.31a2.43,2.43,0,0,1-.3,0,3.16,3.16,0,0,1-.6-.48,7,7,0,0,0-.54-.89c0-.05,0-.1,0-.18.19-.25.72-.13.73-.14s.15-.08.23-.13S35.15,4.5,35.22,4.53Z"/><path class="cls-1" d="M49.65,4a1.19,1.19,0,0,0,.05.32c0,.19.17.47.22.66v.43a8.25,8.25,0,0,1,.32,1.73,4.78,4.78,0,0,1,.16.72s-.11,0-.08.1.11.22.13.3a3,3,0,0,1,.08.48c.37.13.82,0,1.25.13A5.1,5.1,0,0,0,53,9s0,0,0,0c-.63.38-1.59.08-2.4,0a6,6,0,0,0,.24,1.62v.9c0,.22,0,.46,0,.7A4.11,4.11,0,0,1,50.63,15c-.08.13-.2.11-.28.18a.89.89,0,0,0-.08.17c-.08.1-.19.1-.25.23-.47-.21-1.14.17-1.43-.23l-.06-.16a5.82,5.82,0,0,0-.16-.93v-.4a2.71,2.71,0,0,1,0-.75,2.84,2.84,0,0,0,0-.72c-.07-.21,0-.67-.07-1s0-.69-.09-1V10a2.85,2.85,0,0,1-.1-1.05A8.17,8.17,0,0,0,46.3,9c-.24,0-.73,0-.84.14a7.35,7.35,0,0,0,0,.85s.07.07.07.18a3.94,3.94,0,0,0,0,.69s.11.09.11.14-.05.1-.05.13a2.54,2.54,0,0,0,.08.43,3.26,3.26,0,0,1-.22,1.25c-.07.11-.11.05-.13.25l-.14,0c0,.1,0,.15-.13.18s-.5,0-.71-.05a5.14,5.14,0,0,1-.78-1.51v-.32a7.31,7.31,0,0,1-.06-2.24h0a.84.84,0,0,1-.3,0h.05c.08-.05.22-.05.29-.1.16-.29,0-.86.14-1.27l.18-.7c0-.19,0-.35,0-.53s.24-.54.33-.83a4.3,4.3,0,0,0,.07-1.23h0c.09.14.25.16.32.29s.06.3.12.49.18.21.23.34.06.22,0,.27.08.35.1.43l.08.4a.74.74,0,0,1,0,.15s0,.54,0,.57l.1.21c0,.08.13.71.13,1.3,1.12,0,1.68-.21,2.69-.13a9.18,9.18,0,0,1,0-1l.17-1c0-1,.3-1.83.3-2.6,0-.16.18-.27.25-.41s-.07-.34.06-.43C49,3.62,49.52,3.68,49.65,4Z"/><path class="cls-1" d="M56.4,7.47l.37.42c.08.05.25.4.33.47a4.65,4.65,0,0,1,.26.41c.06.08.19.11.24.19a4,4,0,0,1,.27.6s-.06.11,0,.17.08,0,.11.13,0,0,0,0a.06.06,0,0,0,0,0c.21.18.09.52.22.76s.29.11.53.09a1.28,1.28,0,0,1,.29-.13c.4-.27.8-.57,1.15-.81l.1-.08c.37-.32.48-.39.73-.61l.32-.27c0,.06.07.09-.09.19a2.23,2.23,0,0,0-.42.3c-.19.18-.51.48-.65.58l-.28.35c-.32.27-.69.79-1.1.91-.63.2-.82.2-1.06,0a2.3,2.3,0,0,1-.64-1,1.6,1.6,0,0,0-.06-.4A3.69,3.69,0,0,0,56.26,9c-.18-.16-.28-.35-.47-.41,0,0-.11,0-.13.08a2.5,2.5,0,0,0-.09.49c0,.08,0,.08.06.16s0,.13,0,.16.06.15.06.19-.06,0-.06.08.08.18.1.24l-.05.28c0,.09.06.12.06.28s-.13.1-.13.28A1.11,1.11,0,0,1,54.25,12c-.86,0-1.13-.22-1.34-1,0-.19,0-.4,0-.6a3.15,3.15,0,0,1,.42-1.67,4.82,4.82,0,0,1,.8-1,5.68,5.68,0,0,1,1-.57l.25,0a.85.85,0,0,1,.29,0A1.84,1.84,0,0,1,56.4,7.47ZM54.78,9.06c-.14.19-.2.43-.35.66a1.41,1.41,0,0,1-.19.76c.06.07.06,0,.08.13s-.08,0-.1.13,0,.26.08.32a2,2,0,0,0,.58.16,2,2,0,0,0,.25-.5,8,8,0,0,0,.13-1.16,3,3,0,0,0,.08-.76C55.44,8.55,54.93,8.85,54.78,9.06Zm3.11.86H58s0,0,0,0S58,9.86,57.89,9.92Z"/><path class="cls-1" d="M65.75,8.31c.06.09,0,.21,0,.32a1.41,1.41,0,0,1,.11.54c0,.13.19.18.27.27s0,.21.08.37a4.86,4.86,0,0,0,.19.64,4.58,4.58,0,0,1,.19.66c.16-.42.55-.53.9-.85.14-.1.26-.26.4-.34a.06.06,0,0,1,0,.05c-.16.16-.21.4-.37.56s-.39.43-.55.67-.33.23-.27.55v-.07a.31.31,0,0,0,0,.1c.24.22.15.5.23.8a4.43,4.43,0,0,1,.09,1,4.17,4.17,0,0,0,0,.5,1,1,0,0,1,0,.4A1.14,1.14,0,0,0,67,15a2.15,2.15,0,0,1,0,.62v.56a8.79,8.79,0,0,0-.12.95,2.54,2.54,0,0,1-.11,1l-.21.7V19l-.11.08c-.14.21-.21.44-.35.64s-.13.07-.16.12l0,.24s-.17,0-.22.11a2.62,2.62,0,0,1-1,.8c-.23.08-.4.05-.6.11a1.67,1.67,0,0,1-.88-.14c-.06-.05-.09-.16-.14-.24s-.37-.37-.45-.61a4.83,4.83,0,0,1,.1-2.37c.11-.4.19-.72.32-1.06.05-.13.06-.27.14-.35a13.2,13.2,0,0,1,1.2-2.24,1.45,1.45,0,0,1,.18-.35l.85-1.25c.16-.27.6-.59.49-1,0,0,0-.08-.06-.11a10.78,10.78,0,0,1-.56-1.08c-.15,0-.24-.06-.31,0a.91.91,0,0,0,0,.42c-.16.14-.31.3-.47.45s-.21.09-.32.16a1.93,1.93,0,0,1-1.81.38c-.17-.08-.36-.08-.48-.22a2.31,2.31,0,0,1-.4-.85A3.33,3.33,0,0,1,62,9c.11-.19.32-.35.28-.62h-.11a2.66,2.66,0,0,0-.38.19c-.11.06-.53.46-.58.48s0,0,0-.08.28-.24.36-.3a.82.82,0,0,1,.22-.18l.14-.1a2.08,2.08,0,0,1,.52-.25c.16-.05.22-.11.35-.1a.45.45,0,0,1,.35.45,3.06,3.06,0,0,1-.24.48c-.05,0-.16,0-.19.11-.15.26-.39.63-.55.88a2.56,2.56,0,0,0-.35.66c-.06.29-.06.51.05.61s.08.08.16.11.8-.19,1-.27a2.12,2.12,0,0,1,.27-2c.09-.08.24-.05.35-.11s.35-.19.46-.26a1,1,0,0,0,0-.11.9.9,0,0,1,.16,0c.13-.08.24-.31.39-.37a1.65,1.65,0,0,1,.8-.14C65.52,8.18,65.68,8.18,65.75,8.31Zm.33,3.84c0-.08-.4.22-.48.37l-.11.12a10.58,10.58,0,0,0-1,1.3l0,.08c-.17.27-.32.5-.37.59a10.49,10.49,0,0,0-.84,1.72,7,7,0,0,0-.26.81A4.81,4.81,0,0,0,62.69,20a2.56,2.56,0,0,0,.54.67,2.62,2.62,0,0,0,1.59-.36c.12-.15.22-.12.3-.28a8.88,8.88,0,0,0,.58-.73,5.75,5.75,0,0,0,.38-.66v-.14a4,4,0,0,0,.46-1.43,1.72,1.72,0,0,0,0-.32,4.77,4.77,0,0,1,0-.83,2.11,2.11,0,0,0,0-.78c0-.08,0-.47,0-.53s-.08-.37-.11-.47v-.35c-.06-.25-.1-.61-.16-.83s.05-.35,0-.51l0-.18Z"/><path class="cls-1" d="M70.37,7.75a5.4,5.4,0,0,1,.59,1,2.83,2.83,0,0,0,.3.3c.23.23.34.37.53.56l.31.34c.16.14.32.38.51.42a1.86,1.86,0,0,1,.53-.44.94.94,0,0,0,.2-.2,1.06,1.06,0,0,1,.23-.16,3.32,3.32,0,0,1,.86-.64V9a2.43,2.43,0,0,1-.41.38,7.81,7.81,0,0,0-.8.83c-.1.1-.39.32-.34.44.08.27.46.67.56.91a1.64,1.64,0,0,1,.11.38.25.25,0,0,1,0,.21c.08.08,0,.31,0,.48,0,.32-.3.87-.57.9s-.21.08-.32.11a2.74,2.74,0,0,1-.72-.08,2.61,2.61,0,0,1-.73-.93c-.06-.14,0-.33-.11-.45l0-.14a1.77,1.77,0,0,1,.31-.72s.12-.07.16-.13c.06-.24-.34-.7-.41-.83-.15-.29-.22-.59-.38-.87A8.35,8.35,0,0,1,70.11,8l-.06,0a12.78,12.78,0,0,1-1.14,1.07H68.8c.7-.7,1-1,1.25-1.27A1.2,1.2,0,0,1,70,7a1.08,1.08,0,0,1,.75-.23C70.85,7.27,70.4,7.33,70.37,7.75ZM70.32,7a1.48,1.48,0,0,0,0,.39,0,0,0,0,1,0,0l.06,0c.05-.07.19-.24.16-.31s0,0,0-.08Zm1.41,5.35c.14.1.09.21.33.21a.22.22,0,0,0,.15,0s0-.05,0-.1c-.19-.16-.11-.61-.4-.7A5.07,5.07,0,0,0,71.73,12.39Z"/><path class="cls-1" d="M78.82,4.91a2.55,2.55,0,0,1,.32.4.81.81,0,0,1,0,.16.29.29,0,0,1,.13.21l.29.85s-.07.06,0,.13a.48.48,0,0,1,.09.19c0,.16.11.45.13.54,0,.28.11.85.18,1.11a.19.19,0,0,1,.08,0c.16-.21.4-.32.57-.51a10.67,10.67,0,0,0,.82-.93c.14-.17.37-.34.43-.59A.49.49,0,0,1,81.57,6a.3.3,0,0,0,.06-.11c.08-.18.28-.18.4-.29a1.2,1.2,0,0,1,.37.08c.08.3,0,.3-.05.67a4,4,0,0,0,.63.07,2.18,2.18,0,0,1,1,.32c.21.19.07.29.16.57a.47.47,0,0,1,.1.1,1.11,1.11,0,0,1,.06.27c0,.1,0,.47,0,.55s.2.28.2.33-.06.1-.06.15.14.32.16.46-.08.26-.06.4.09.46.12.66c.48.17.82-.13,1.14-.31.11-.06.19,0,.3-.08l.45-.35s.08,0,.13,0a.18.18,0,0,0,0-.11,3.12,3.12,0,0,0,.42-.18s0-.08,0-.09.06,0,.09,0,.28-.22.4-.3v.1c-.16.12-.36.48-.56.64a1.15,1.15,0,0,0-.17.06,8.47,8.47,0,0,1-2.29,1.47,1.87,1.87,0,0,1-1.63-.8,3.39,3.39,0,0,1-.2-.51,1.43,1.43,0,0,1-.11-1.09c-.18-.11-.06-1.07,0-1.38s0-.44-.15-.57-.31-.07-.46,0a6.17,6.17,0,0,1-.74,1l-.22.15a4.29,4.29,0,0,1-.48.56c-.21.17-.58.27-.62.62-.13.19,0,.51,0,.75a4.51,4.51,0,0,0,0,.82,1.16,1.16,0,0,1-.06.48c0,.08-.15.54-.18.61s0,.22,0,.28l-.12,0c0,.06,0,.22,0,.29s-.24.19-.28.38,0,.17,0,.27-.1.15-.22.18c-.12-.12-.16,0-.31-.08a3,3,0,0,1-.64-.32l-.3-.34s.06-.14,0-.21-.12-.17-.13-.22a4.24,4.24,0,0,1-.11-1.51l0,0c-.32.12-.21.27-.58.14-.06-.14-.19-.13-.21-.29s.19-.06.4-.06.47.08.48-.39c0-.19,0-.16,0-.24a2.2,2.2,0,0,1,0-.81c0-.43,0-.74,0-1.35V6.19a1.12,1.12,0,0,0-.07-.48,1.68,1.68,0,0,1-.06-.27l-.05,0a18.8,18.8,0,0,1-1.36,1.68c-.15.12-.27.24-.4.36A11,11,0,0,1,74.3,9.09V9c.09-.11.27-.24.36-.35.29-.35.6-.77.88-1.12.07-.07.2-.13.26-.2s.08-.19.16-.25c.24-.26.53-.5.75-.77.08-.11.13-.24.21-.35a2.34,2.34,0,0,0,.38-.55c0-.12,0-.16-.06-.22a3.76,3.76,0,0,1,0-.4,1.86,1.86,0,0,0,.34-.13,2.19,2.19,0,0,1,.86,0C78.54,4.75,78.69,4.8,78.82,4.91Z"/><path class="cls-1" d="M90.08,7.38a2.3,2.3,0,0,1,1.09,1.17,1.06,1.06,0,0,1,.14.61,6.47,6.47,0,0,1-.16.89,1.86,1.86,0,0,1-.29.51,4.51,4.51,0,0,1-.22.44c-.13.17-.42.2-.55.38a1.78,1.78,0,0,1-.17.3,1.66,1.66,0,0,1-1,.6c-.48.13-1-.42-1.17-.69a2.73,2.73,0,0,1-.5-2.21,1.59,1.59,0,0,1,.85-.91.18.18,0,0,0,.13,0c.16,0,.18,0,.18.08-.18.51.06.86.2,1.31v.32c.07.25,0,.51.13.73s.19.18.26.24a2.85,2.85,0,0,0,.42,0,.35.35,0,0,1,.16-.16,3.58,3.58,0,0,0,.39-.21,2.88,2.88,0,0,0,.77-1.25V9.2a1.2,1.2,0,0,0-.19-1,3.29,3.29,0,0,0-.83-.61c-.35-.09-1,.31-1.28.16,0,0,0,0,0-.08a2,2,0,0,1,.69-.38s0,0,.09,0C89.5,7.09,89.93,7.31,90.08,7.38ZM88.24,5.09l.14,0,.23.06a.18.18,0,0,1,.06.16c-.11.15.16.39.19.59-.16.08-.22.26-.4.28-.09-.13-.29-.13-.41-.21s-.15-.35-.21-.69A.37.37,0,0,1,87.77,5,2.32,2.32,0,0,1,88.24,5.09Zm2.5-.22c.2.12.28.41.46.57v.07h-.11c0,.09-.23.46-.32.49s-.1,0-.23,0-.27-.16-.41-.14,0-.07-.21-.24V5.51l0,0c-.06-.09-.21-.49-.09-.6s.15-.15.46-.15C90.35,4.88,90.61,4.77,90.74,4.87Z"/><path class="cls-1" d="M95.68,8.23a4.78,4.78,0,0,1,.32.64c.13.33.14.75.24,1.07s.1.7.24.78v0c.13-.11.16-.3.26-.45a2,2,0,0,1,.2-.22c.12-.18.18-.35.29-.53a3,3,0,0,1,2-1.13c.14.2.35.4.48.62s.07.27.15.43a4,4,0,0,1,.2.35v.16a3.33,3.33,0,0,1,.16.4v.28l.08,0c.05.1-.06.18,0,.23l.12.09a1.23,1.23,0,0,1,0,.16l.05,0v.16c0,.09.08.27.08.35s0,.17,0,.19c0,.26,0,.72.12.67v.18c0,.08,0,.19-.12.27s-.32.23-.44.35a.81.81,0,0,1-.68-.32c0-.08,0-.14-.06-.22s-.13,0-.16-.1a1.33,1.33,0,0,1-.1-.48c0-.06.05,0,.08-.11L99,12a2.14,2.14,0,0,0,0-.62,2.88,2.88,0,0,0-.32-1.67c-.1-.14-.11-.37-.3-.4-.2.26-.66.37-.88.69a5.5,5.5,0,0,0-.47.94v.23a4.56,4.56,0,0,1-.45.77c-.14,0-.2,0-.32,0-.19-.26-.49-.24-.49-.71a1.2,1.2,0,0,0,0-.68,9.44,9.44,0,0,0-.42-1.94l-.06,0a3.29,3.29,0,0,0-.71,1,3,3,0,0,0-.09.87V11c-.08.32-.2.62-.28.91a1.63,1.63,0,0,1-.35.05c-.08-.13-.24-.18-.32-.29s0-.38-.11-.51c-.24-.55-.85-1.46-.45-2.08h0a.51.51,0,0,1,.05.24c-.08.13.06.24.11.38v.16A5.13,5.13,0,0,0,93.74,11c.08.11.1.27.27.32l.16-.19A11.59,11.59,0,0,0,94.5,9.7a4.1,4.1,0,0,1,.27-.64c.06-.11.19-.23.24-.35V8.5c.06-.14.32-.18.43-.27Z"/></g></g></svg>